{"title":"Larry Crowne 2011 CAM XViD - IMAGiNE","uid":6512642,"size":737796376,"categoryP":"video","categoryS":"movies","magnet":"?xt=urn:btih:b8895ca7e199e463d2a5d16147ca993bd5d219d1&amp;dn=Larry+Crowne+2011+CAM+XViD+-+IMAGiNE&amp;tr=udp%3A%2F%2Ftracker.openbittorrent.com%3A80&amp;tr=udp%3A%2F%2Fopen.demonii.com%3A1337&amp;tr=udp%3A%2F%2Ftracker.coppersurfer.tk%3A6969&amp;tr=udp%3A%2F%2Fexodus.desync.com%3A6969","seeders":1,"leechers":0,"uploader":"SAFCukO09","files":2,"time":1309654098,"description":"*********** **** **** *** ******** *********** **** *** **********\n*+* +*+*+* *+*+*+ *+* *+* *+* *+* *+* *+*+* *+* *+*\n+*+ +*+ +*+*+ +*+ +*+ +*+ +*+ +*+ *+*+*+ +*+ +*+\n+$+ +$+ +*+ +$+ +$++*++$++* *$* +$+ +$+ +*+ +$+ +$++*++$\n+$+ +$+ +$+ +$+ +$+ +$+ +$+$ +$+ +$+ +$+$+$ +$+\n$+$ $+$ $+$ $+$ $+$ $+$ $+$ $+$ $+$ $+$+$ $+$\n$$$$$$$$$$$ $$$ $$$ $$$ $$$ $$$$$$$$ $$$$$$$$$$$ $$$ $$$$ $$$$$$$$$$\n\n\n\n\nAnother Fine Release Brought to you from - IMAGiNE\n\n\n********************************************************************************************************************\nLarry Crowne 2011 CAM XViD - IMAGiNE\n********************************************************************************************************************\n\nRipper ...........: IMAGiNE IMDB Rating.......: 5.9/10\nVideo Codec.......: XVID Release Date......: 02/07/11\nAudio Codec.......: MP3 Theatre Date......: 01/07/11\nAudio Bitrate.....: 128 Runtime...........: 1h 38mn\nSubtitles.........: NIL Language..........: ENGLISH\nResolution........: 640 x 224 IMDb URL..........: http://www.imdb.com/title/tt1583420/\n\n\nDETAILS:\n\nVideo\nID : 0\nFormat : MPEG-4 Visual\nFormat profile : Advanced Simple@L5\nFormat settings, BVOP : Yes\nFormat settings, QPel : No\nFormat settings, GMC : No warppoints\nFormat settings, Matrix : Default (H.263)\nMuxing mode : Packed bitstream\nCodec ID : XVID\nCodec ID/Hint : XviD\nDuration : 1h 38mn\nBit rate : 864 Kbps\nWidth : 640 pixels\nHeight : 224 pixels\nDisplay aspect ratio : 2.857\nFrame rate : 23.000 fps\nColor space : YUV\nChroma subsampling : 4:2:0\nBit depth : 8 bits\nScan type : Progressive\nBits/(Pixel*Frame) : 0.262\nStream size : 607 MiB (86%)\nWriting library : XviD 58\n\nAudio\nID : 1\nFormat : MPEG Audio\nFormat version : Version 1\nFormat profile : Layer 3\nCodec ID : 55\nCodec ID/Hint : MP3\nDuration : 1h 38mn\nBit rate mode : Constant\nBit rate : 128 Kbps\nChannel(s) : 2 channels\nSampling rate : 44.1 KHz\nStream size : 89.9 MiB (13%)\nAlignment : Split accross interleaves\nInterleave, duration : 43 ms (1.00 video frame)\nInterleave, preload duration : 500 ms\nWriting library : LAME3.98.4\n\n\n\nSOURCES:\n\nVIDEO: No Group Thanks matey....\nAUDIO: No Group Thanks matey....\n\nNOTES:\n\nIMAGiNE bringing you another release..........\n\nNow the video had a very big chair covering 25% of the bottom of video so we cropped\n\nbut was interlaced and had an angle to it.......\n\nresized also adjusted the brightness,rgb, and all of that\n\nThe audio made it mp3 and muxed to our encode and 2 samples to look at......\n\nEnjoy folks!\n\nFYI FIRST CAM ONLY DAY OLD WILL DO FOR CAM LOVERS TILL BETTER VIDEO AND AUDIO COMES\n","torrent":{"xt":"urn:btih:b8895ca7e199e463d2a5d16147ca993bd5d219d1","amp;dn":"Larry+Crowne+2011+CAM+XViD+-+IMAGiNE","amp;tr":["udp%3A%2F%2Ftracker.openbittorrent.com%3A80","udp%3A%2F%2Fopen.demonii.com%3A1337","udp%3A%2F%2Ftracker.coppersurfer.tk%3A6969","udp%3A%2F%2Fexodus.desync.com%3A6969"],"infoHash":"b8895ca7e199e463d2a5d16147ca993bd5d219d1","infoHashBuffer":{"type":"Buffer","data":[184,137,92,167,225,153,228,99,210,165,209,97,71,202,153,59,213,210,25,209]},"announce":[],"urlList":[]}}